<svg width="162" height="33" viewBox="0 0 162 33" fill="none" xmlns="http://www.w3.org/2000/svg">
<path d="M17.5605 15.9004C19.8105 14.5054 21.2505 12.1204 21.2505 9.19535C21.2505 4.56035 17.4705 0.735349 12.7905 0.735349H0.100489V32.2354H13.8255C18.6855 32.2354 22.6005 28.3204 22.6005 23.4604C22.6005 19.9504 20.5305 17.1604 17.5605 15.9004ZM12.7905 3.70535C15.7155 3.70535 18.1005 6.18035 18.1005 9.19535C18.1005 12.2553 15.7155 14.6854 12.7905 14.6854H3.25049V3.70535H12.7905ZM13.8255 29.2654H3.25049V17.6554H13.8255C16.9305 17.6554 19.4505 20.2654 19.4505 23.4604C19.4505 26.7004 16.9305 29.2654 13.8255 29.2654ZM53.0919 32.7754C58.9869 32.7754 64.1619 29.6704 66.7269 24.9904L63.9369 23.4154C62.0019 27.1954 57.8169 29.7154 53.0919 29.7154C45.1269 29.7154 39.7269 23.8204 39.7269 16.4854C39.7269 9.15035 45.1269 3.25535 53.0919 3.25535C57.8169 3.25535 62.0019 5.77535 63.9369 9.55535L66.7269 7.93535C64.1169 3.25535 58.9419 0.195351 53.0919 0.195351C43.4169 0.195351 36.5769 7.48535 36.5769 16.4854C36.5769 25.4854 43.4169 32.7754 53.0919 32.7754ZM91.2677 0.735349H68.7677V3.70535H78.4427V32.2354H81.5927V3.70535H91.2677V0.735349ZM101.671 9.19535C94.6965 9.19535 89.9265 14.3704 89.9265 20.9854C89.9265 27.7804 94.7865 32.7754 101.896 32.7754C106.441 32.7754 109.906 30.6604 111.796 27.6004L109.186 26.0704C107.971 28.2304 105.496 29.8954 101.941 29.8954C97.1715 29.8954 93.6165 27.0604 92.9865 22.4704H112.741C112.786 22.0204 112.831 21.5254 112.831 21.0754C112.831 14.9104 108.556 9.19535 101.671 9.19535ZM101.671 12.0754C105.541 12.0754 109.141 14.6404 109.771 19.5904H92.9865C93.5715 15.1804 96.9465 12.0754 101.671 12.0754ZM128.041 32.7754C132.451 32.7754 136.276 30.4804 138.121 26.9254L135.646 25.4854C134.206 28.0954 131.461 29.8954 128.041 29.8954C123.046 29.8954 119.176 25.9804 119.176 20.9854C119.176 15.9904 123.046 12.0754 128.041 12.0754C131.416 12.0754 134.251 13.8304 135.466 16.4854L137.896 15.0904C136.276 11.5354 132.496 9.19535 128.041 9.19535C121.246 9.19535 116.206 14.3254 116.206 20.9854C116.206 27.6454 121.246 32.7754 128.041 32.7754ZM152.915 9.19535C149.72 9.19535 147.11 10.4104 145.355 13.2454V0.735349H142.385V32.2354H145.355V20.4454C145.355 14.4154 148.685 12.0754 152.645 12.0754C156.56 12.0754 158.765 14.4154 158.765 18.4204V32.2354H161.735V18.4204C161.735 12.7954 158.405 9.19535 152.915 9.19535Z" fill="#F5FBF2"/>
<path d="M29.5808 32.6854C30.9758 32.6854 32.0558 31.6054 32.0558 30.2104C32.0558 28.8154 30.9758 27.7354 29.5808 27.7354C28.1858 27.7354 27.1058 28.8154 27.1058 30.2104C27.1058 31.6054 28.1858 32.6854 29.5808 32.6854Z" fill="#00E3A5"/>
</svg>
